<svg width="41" height="40" viewBox="0 0 41 40" fill="none" xmlns="http://www.w3.org/2000/svg">
<circle cx="20.3549" cy="20" r="20" fill="black"/>
<path d="M30.0897 11.9968C30.0897 12.9253 29.3324 13.677 28.3969 13.677C27.4614 13.677 26.7015 12.9227 26.7015 11.9968C26.7015 11.0682 27.4614 10.314 28.3969 10.314C29.3324 10.314 30.0897 11.0656 30.0897 11.9968Z" fill="white"/>
<path d="M26.0542 33.9436H14.6555C9.5981 33.9436 5.48145 29.8575 5.48145 24.8377V14.8682C5.48145 9.84832 9.5981 5.76221 14.6555 5.76221H26.0542C31.1116 5.76221 35.2283 9.84832 35.2283 14.8682V24.8377C35.2283 29.8575 31.1116 33.9436 26.0542 33.9436ZM14.6555 7.78576C10.7196 7.78576 7.52012 10.9615 7.52012 14.8682V24.8377C7.52012 28.7443 10.7196 31.9201 14.6555 31.9201H26.0542C29.9875 31.9201 33.1896 28.7443 33.1896 24.8377V14.8682C33.1896 10.9641 29.9875 7.78576 26.0542 7.78576H14.6555Z" fill="white"/>
<path d="M20.3549 27.9589C15.8504 27.9589 12.1897 24.3227 12.1897 19.8517C12.1897 15.3806 15.853 11.7471 20.3549 11.7471C24.8567 11.7471 28.5201 15.3832 28.5201 19.8517C28.5201 24.3227 24.8594 27.9589 20.3549 27.9589ZM20.3549 13.7706C16.9772 13.7706 14.2258 16.499 14.2258 19.8543C14.2258 23.2069 16.9746 25.9353 20.3549 25.9353C23.7326 25.9353 26.4814 23.2069 26.4814 19.8543C26.4814 16.499 23.7326 13.7706 20.3549 13.7706Z" fill="white"/>
</svg>
