<svg width="320" height="276" viewBox="0 0 320 276" fill="none" xmlns="http://www.w3.org/2000/svg">
<path d="M232.149 56.7645C233.26 56.5241 234.343 54.6287 236.137 57.998L236.137 57.9978C237.146 57.6012 238.154 57.2045 239.175 56.8361C240.483 56.3453 244.107 56.9339 245.379 57.8251C247.73 59.4895 247.646 59.4589 248.412 63.4327C248.732 65.063 249.481 66.7774 250 68.4562C250.315 69.4886 251.022 71.1876 250.81 71.4446C250.293 72.0317 249.622 72.3843 250.48 73.6853C251.79 75.6272 251.143 72.6027 251.553 73.0614C252.165 73.7543 252.671 74.8498 253.129 75.8421L253.148 75.8818C253.671 77.0255 255.818 74.7769 255.217 78.4333C255.129 78.9377 256.774 80.7033 257.517 81.9866C258.402 83.4762 258.628 85.3466 260.15 86.5312C260.762 87.0037 259.858 89.8227 258.696 89.6512C256.575 89.3221 256.406 92.5275 254.652 92.8085C254.565 92.8125 254.489 93.1783 254.537 93.2911C257.305 98.445 252.62 96.7083 252.944 99.6037C250.594 98.9054 249.716 100.947 248.786 102.91C246.325 101.492 246.812 104.351 246.502 106.051C246.474 106.196 246.625 106.465 246.694 106.669C247.057 107.814 248.322 109.442 246.909 109.644C246.526 109.707 245.707 108.289 245.065 107.83C244.778 107.618 244.217 107.891 244.095 108.276C243.573 109.899 246.397 110.495 245.685 112.299C246.017 112.491 246.538 113.002 246.665 112.881C247.702 111.673 249.978 113.536 250.64 111.32C250.708 111.104 251.227 113.587 251.659 115.11C251.864 115.064 252.067 115.081 252.257 115.198C252.278 116.895 251.995 116.292 251.659 115.11C251.209 115.21 250.749 115.613 250.392 115.926L250.39 115.927C249.411 116.811 250.026 119.216 251.488 120.426C251.934 120.803 252.419 121.23 252.865 121.439C254.627 122.222 254.298 123.462 254.07 124.726L254.061 124.776C254.004 125.092 253.936 125.47 254.002 125.822L254.036 126.005C254.347 127.679 254.355 127.725 253.95 127.544C253.643 127.408 253.318 126.98 253.046 126.929C251.507 126.752 249.845 126.16 248.648 127.204C248.382 127.417 247.854 127.142 247.45 127.115C247.468 126.74 247.514 126.387 247.503 126.025C247.385 124.576 248.615 123.484 247.35 121.857C245.435 119.373 246.043 123.647 244.616 123.022C244.086 122.782 243.587 123.328 243.112 123.597C241.952 124.225 239.013 124.111 237.707 123.434C237.303 123.24 236.76 123.138 236.518 123.408C235.94 124.021 236.899 126.479 235.463 126.124C233.9 125.724 234.518 127.76 234.429 128.765C234.25 130.941 235.143 129.561 235.64 129.849C236.569 130.353 237.24 131.8 236.644 132.288C235.39 133.322 235.784 134.121 237.225 135.407C237.372 135.544 237.543 136.405 237.425 136.589C236.674 138.009 235.818 139.307 235.067 140.728C234.982 140.864 235.294 141.764 235.523 141.966C237.383 143.774 237.557 144.1 237.217 145.478C237.174 145.63 237.129 145.816 237.035 145.889C236.521 146.275 235.51 146.539 237.192 147.555C237.798 147.931 238.761 148.054 238.976 147.595C239.261 147.007 238.967 145.732 238.923 144.751C238.9 144.361 238.891 143.964 238.868 143.574C239.133 143.861 239.462 144.088 239.663 144.435C239.988 145.03 240.235 145.692 240.496 146.347C241.461 148.736 242.721 149.766 243.96 148.904C245.123 148.075 246.553 148.499 247.996 148.784C248.252 148.841 248.535 149.087 248.813 149.236C248.701 149.517 248.645 149.974 248.449 150.057C247.712 150.338 246.911 151.013 246.136 150.577C244.876 149.88 244.803 150.212 245.455 151.7C246.084 153.133 246.534 154.274 245.318 154.559C245.215 154.57 245.409 155.82 245.674 156.274C245.903 156.643 246.533 156.908 246.832 156.814C248.01 156.479 249.058 155.798 250.281 155.61C250.71 155.528 251.472 156.436 252.099 156.902C251.878 157.263 251.72 157.73 251.424 157.957C250.094 158.857 248.729 159.672 247.387 160.544C247.218 160.65 247.009 161.039 246.97 160.989C244.653 158.276 243.995 160.457 242.84 161.516C242.175 162.133 240.6 161.37 240.14 162.133C239.126 163.899 238.422 166.099 237.884 168.396C237.562 169.733 236.275 170.315 237.173 172.799C237.429 173.523 237.232 174.108 238.039 174.663C238.368 174.89 238.955 175.973 238.903 176.229C238.684 177.222 237.989 177.852 237.969 178.894C237.942 180.672 237.203 179.987 236.326 179.727C235.885 179.615 235.783 181.259 235.254 181.484C233.925 182.051 232.524 182.615 230.997 182.466C229.901 182.366 229.056 182.226 228.74 183.661C228.627 184.109 228.11 184.696 228.017 184.603C225.631 182.02 225.924 185.595 224.906 186.096C223.634 186.671 222.873 188.696 221.521 188.705C220.138 188.728 219.514 189.861 218.445 190.283C217.047 190.813 215.669 191.433 214.295 192.019C213.042 192.553 211.836 193.2 210.523 193.594C209.297 193.983 207.268 192.448 207.016 195.122C205.53 193.689 205.133 196.525 203.638 195.028C202.967 197.348 201.012 197.281 199.64 198.333C197.071 200.262 193.592 199.511 190.678 200.42C189.705 200.734 188.11 199.881 186.868 198.977C185.502 197.992 185.293 200.182 184.076 199.167C182.713 201.581 180.988 202.85 177.904 200.431C177.66 200.235 177.28 201.898 176.824 201.792C175.557 201.498 174.221 200.835 172.918 200.123C171.561 199.368 167.703 198.313 166.625 198.672C165.622 199 164.776 199.527 163.374 198.625C162.439 198.023 161.178 197.827 160.58 198.349C159.588 199.205 159.015 200.749 157.659 201.127C157.375 201.215 156.201 202.982 158.324 204.278C158.202 204.663 158.162 205.28 157.908 205.355C155.897 206.079 154.969 208.508 153.635 210.277C153.339 210.67 153.159 211.713 152.921 211.615C151.95 211.095 149.56 211.421 150 213.5L146.579 214.5C145.892 214.85 146.186 215.968 145.5 216.309C142.869 217.616 139.546 217.879 139.821 216.932C139.35 217 138.542 216.778 138.459 217.213C138.116 218.626 137.924 219.808 136.425 217.38C136.145 216.933 135.414 216.977 134.908 216.793C134.443 216.625 133.991 216.484 133.541 216.309C133.813 216.026 134.278 215.861 134.333 215.404C134.514 214.027 132.075 210.734 130.885 211.041C129.176 211.469 127.44 209.909 125.724 209.274C124.149 208.678 122.66 209.08 120.982 207.362C120.036 206.398 119.926 206.978 119.56 207.835C119.284 208.485 118.065 207.972 117.362 208.205C115.368 208.888 113.57 204.754 111.617 204.82C110.182 202.331 107.577 200.408 108.136 196.903C108.148 196.764 107.256 195.845 106.759 195.39C106.289 194.957 105.767 194.612 105.273 194.29C104.426 193.684 103.467 192.693 102.758 192.662C101.774 192.614 100.961 193.261 100.133 193.747C100.01 193.833 100.081 194.503 100.207 194.883C101.054 197.455 100.28 198.319 99.0051 198.762C98.7968 198.817 98.7808 199.324 98.6536 199.612C99.0669 199.702 99.4713 199.73 99.8936 199.883C100.162 199.969 100.433 200.186 100.708 200.37C100.581 200.657 100.52 201.016 100.329 201.198C99.1804 202.187 97.5592 200.645 96.1922 200.494C95.7184 200.43 95.3464 200.855 94.9205 201.07C95.3243 201.431 96.0238 201.9 96.0596 202.151C96.1488 202.946 95.9846 203.65 95.932 204.406C95.5975 204.081 95.2661 203.723 94.9285 203.433C94.5518 203.094 94.127 202.641 93.771 202.56C93.2581 202.445 92.8676 203.078 92.6923 201.453C92.4991 199.702 93.066 196.426 90.1904 197.719C89.8431 197.867 88.8393 197.061 88.4179 196.408C87.1205 194.327 85.7107 192.695 84.0769 191.458C83.8447 191.29 83.5111 190.465 83.5388 190.154C83.6345 188.913 83.1406 188.257 82.2786 187.491C80.9978 186.37 79.6735 185.901 78.4242 183.933C77.4941 182.463 75.6533 182.247 74.9936 179.695C74.9276 179.457 74.3489 178.937 74.213 178.994C73.1799 179.502 71.6605 178.449 71.418 177.252C71.008 175.16 70.1853 172.644 71.2142 171.039C71.65 170.386 71.6883 169.136 71.8108 168.084C71.8293 167.876 71.4288 167.314 71.1788 167.02C71.1125 166.948 70.759 167.166 70.7405 167.374C70.5959 169.002 69.758 168.293 68.7867 167.94C67.2664 167.388 67.5014 164.087 65.9014 164.269C63.9814 164.454 64.1096 161.866 63.3391 160.561C62.9479 159.895 62.8589 158.932 62.6551 158.119C63.1249 158.719 63.5766 159.36 64.0646 159.919C64.17 160.04 64.5658 159.838 64.563 159.706C64.4738 158.911 65.4619 158.256 64.0149 157.206C63.632 156.936 63.0615 155.179 63.0766 155.173C64.847 154.218 65.1443 153.325 62.3252 151.526C61.2247 150.828 61.2885 148.801 62.3792 148.136C63.4549 147.478 63.4247 147.49 62.4651 145.533C62.1192 144.847 61.8309 144.003 61.7053 143.29C61.2956 141.031 61.4078 138.949 60.259 136.506C59.856 135.644 59.9503 133.437 60.3217 133.345C61.8856 133.079 61.6446 131.048 62.0636 129.602C62.27 128.914 63.4505 128.711 62.4806 127.524C61.577 126.41 60.549 123.914 59.4764 124.538C57.5458 125.661 57.0038 123.092 56.4694 121.42C56.0161 119.979 56.3612 117.565 55.9454 117.176C54.3633 115.683 55.9832 114.46 54.8351 113.315C55.1987 112.494 55.352 111.095 55.962 110.935C56.8981 110.703 58.1437 111.238 59.2599 111.596C59.3866 111.642 59.8251 112.922 59.749 113.288C59.6363 113.902 59.2101 114.284 58.9195 114.775C59.4567 114.779 60.0902 115.009 60.5161 114.794C61.3107 114.355 61.9939 113.697 62.6772 113.039C63.0128 112.696 62.717 110.956 62.1814 109.951C61.2096 108.131 60.8958 106.265 61.7032 105.354C63.1307 103.679 65.0219 102.673 65.1573 99.3478C68.4019 97.6647 69.1311 93.0535 70.1134 88.7011C70.2532 88.1081 70.7759 87.7853 71.2441 87.5857C72.7303 86.8855 74.2495 86.3046 75.7477 85.6326C76.2039 85.4048 76.5879 85.0077 77.011 84.6607C76.6075 84.1326 75.8482 83.3562 75.8577 83.0855C75.9229 82.0243 75.7383 80.5028 76.9664 80.7461C77.609 80.8721 78.2579 80.9289 78.9067 80.9857C78.5032 80.4576 78.0725 79.9078 77.7173 79.3258C77.6661 79.2477 77.9055 78.6789 78.1019 78.5952C79.1803 78.0688 80.4453 77.8963 80.3586 75.5997C80.3416 74.9736 80.8525 74.4557 81.2785 74.2408C82.2965 73.7402 83.2457 72.8688 84.7711 74.0188C84.7113 71.9107 86.1594 72.2935 87.0356 71.7533C87.3589 71.5488 87.7938 71.3968 88.201 71.5565C89.0034 71.8479 90.1665 72.9855 90.5595 72.6513C91.8592 71.5973 93.135 70.32 93.9168 68.5533C94.4834 67.245 94.3086 67.0861 95.4435 68.8692C97.5357 72.1444 99.7278 71.6766 101.802 71.5593C102.372 71.5161 102.985 71.6551 103.588 71.7311C102.544 68.1093 103.994 68.9578 105.669 69.4108C106.875 69.7298 107.973 68.8287 108.949 68.1459C109.242 67.9543 108.927 66.5883 108.883 65.7736C109.561 66.4847 110.275 67.1136 110.932 67.9004C112.285 69.5241 112.769 68.4841 113.353 67.6351C114.322 66.2222 114.152 62.7274 116.998 64.7145C117.095 64.7733 117.376 64.2199 117.325 64.1417C115.758 61.0095 118.315 62.3196 118.456 61.0594C118.545 60.2214 116.914 57.3163 119.383 59.2976C119.476 59.3911 119.794 56.9554 120.321 56.0975C120.845 55.2742 122.006 55.6125 122.332 54.0736C122.536 53.0866 123.873 53.0833 124.682 52.6382C125.477 52.1995 125.529 51.9441 124.875 51.2894C124.408 50.6549 123.391 50.3216 123.379 50.4602C123.185 52.643 121.424 51.8604 120.526 52.6431C120.354 52.7832 119.995 52.5695 119.696 52.4968C119.685 51.9682 119.508 51.1768 119.705 50.9263C120.682 49.5763 121.777 48.3763 122.817 47.1327C123.579 46.2411 122.49 46.0721 122.219 45.5208C121.949 44.9694 121.896 43.9251 122.093 43.5078C122.59 42.3292 122.853 44.1174 123.211 44.3311C123.721 44.6473 124.366 44.9055 124.774 44.7317C126.683 44.018 128.547 43.1568 130.447 42.3803C131.066 42.1164 131.676 41.7895 132.34 41.6731C133.047 41.5719 133.988 43.4041 134.019 44.6909C134.036 45.3171 134.185 46.4203 134.415 46.6227C134.939 47.0992 135.941 48.572 135.957 46.5986C135.952 46.1674 136.453 45.9203 136.8 45.7723C138.504 45.0794 140 43.7749 142.295 44.9301C143.102 42.5526 144.417 41.3253 146.917 42.7932C146.875 39.0108 149.763 42.6466 150.942 41.4772C152.04 40.4093 153.455 39.2062 155.514 40.3952C155.638 40.4758 155.861 40.5807 155.879 40.5396C156.475 37.9187 158.166 37.5312 160.08 37.2486C161.994 36.9661 163.692 36.0089 165.348 35.0364C166.451 34.3997 167.271 33.1834 168.289 32.3491C169.226 31.6164 170.208 31.1979 170.958 29.9445C171.9 28.3431 173.932 27.8768 175.725 27.8126C176.745 27.7777 178.339 29.2983 179.535 30.5553C181.897 33.082 184.108 34.3733 186.288 33.7105C186.512 33.6486 186.579 33.22 186.73 32.9888C186.501 32.7864 186.164 32.3301 186.028 32.3881C184.415 33.0423 184.659 31.6049 184.938 30.5857C185.093 29.9862 185.55 29.5917 185.991 29.3703C187.329 28.6998 188.706 28.0793 190.129 27.6063C191.086 27.2982 191.386 26.7037 190.637 24.9893C190.565 24.8201 191.052 24.2458 191.372 24.076C191.523 24.0116 191.954 24.3946 192.174 24.7009C192.406 25.0355 192.52 25.5537 192.745 25.9575C193.257 26.9062 193.814 27.8356 194.355 28.7714C194.688 28.1294 195.13 27.5745 195.331 26.7889C195.616 25.7004 195.017 24.9225 194.14 24.1629C192.964 23.1639 192.574 21.9969 193.707 21.514C194.401 21.2179 195.247 21.191 196.067 21.2744C196.426 21.3213 196.896 21.9211 197.342 22.2977C197.094 22.6368 196.822 22.9195 196.586 23.2868C196.317 23.7016 196.059 24.1447 195.805 24.5531C196.27 24.8885 196.725 25.328 197.183 25.5659C197.572 25.7668 202.431 24.062 202.83 23.9921C203.696 23.8895 204.764 24.301 205.48 23.9292C206.241 23.538 206.6 22.2852 207.337 21.8375C207.645 21.6395 208.528 22.4965 209.088 23.0577C209.221 23.2012 209.129 24.0738 209.125 24.6089C209.122 24.8103 209.103 25.0182 209.046 25.1761C208.691 26.2275 208.254 27.2136 208.02 28.3802C207.965 28.6703 211.996 29.5855 211.994 28.7862C211.964 25.3655 214.145 27.8027 215.286 27.7163C215.929 27.6755 217.518 28.5983 216.962 30.602C218.778 31.4282 219.75 35.0476 221.642 35.3411L221.65 35.3425C222.432 35.4725 222.773 35.5292 222.545 36.6229C222.192 38.3068 222.188 40.8088 221.266 41.3683C220.194 41.9922 219.906 44.4151 217.862 43.2198C217.129 42.7987 216.183 43.4686 215.66 44.1251C215.118 44.8226 213.46 45.6629 216.079 47.5798C216.312 47.7475 216.666 48.4963 216.645 48.7388C216.344 51.9675 217.236 52.7206 219.082 51.7338C219.157 51.7016 219.56 52.3964 219.792 52.7309C217.981 54.9701 220.988 57.5882 221.531 59.9906C221.561 60.1445 222.499 60.3779 223.015 60.6248C224.357 61.2194 225.215 62.1868 225.052 64.19C224.987 64.9176 225.001 65.7452 225.193 66.5301C225.319 67.0765 225.822 67.6288 226.153 68.1543C227.292 65.9688 231.209 73.0661 231.409 67.7141C232.596 68.9081 233.472 68.5348 234.236 67.9421C234.581 67.6619 234.688 66.9496 234.906 66.4566C234.402 66.0711 233.812 65.356 233.447 65.3784C231.953 65.5154 230.417 65.3034 228.768 63.906C228.403 63.5948 228.079 62.8331 227.88 62.2842C227.799 62.0521 228.171 61.4601 228.211 61.51C230.034 63.2331 229.934 59.7753 231.454 60.6609C231.743 60.8376 232.039 60.6113 232.335 60.5518C232.022 59.9852 231.731 59.176 231.402 58.9494C230.866 58.6114 230.31 58.6482 229.755 58.5182C230.124 58.1275 230.442 57.6587 230.85 57.3181C231.176 57.079 231.59 57.0027 232.149 56.7645Z" fill="#FFE68E"/>
<path d="M219.789 66.3553C219.748 71.5076 216.979 75.9992 212.868 78.4736C210.694 79.783 208.143 80.5262 205.42 80.5026C197.551 80.4378 191.222 73.9967 191.287 66.1164C191.307 63.5889 191.985 61.2207 193.155 59.171C195.629 54.8327 200.311 51.9248 205.659 51.972C213.528 52.0369 219.857 58.475 219.789 66.3553Z" fill="#585E60"/>
<path d="M212.868 78.4722C210.694 79.7817 208.143 80.5249 205.42 80.5013C197.551 80.4364 191.222 73.9953 191.287 66.1151C191.307 63.5876 191.985 61.2194 193.155 59.1697C201.054 64.0775 207.798 70.6834 212.868 78.4722Z" fill="#414749"/>
<path d="M128.713 65.5967C128.648 73.474 122.213 79.8089 114.341 79.7441C111.851 79.7234 109.517 79.0657 107.49 77.9273C103.109 75.4618 100.163 70.746 100.21 65.3608C100.275 57.4805 106.707 51.1456 114.579 51.2134C120.068 51.2577 124.809 54.4074 127.151 58.9816C128.168 60.9638 128.733 63.2138 128.713 65.5967Z" fill="#585E60"/>
<path d="M127.151 58.9814C128.168 60.9633 128.733 63.2136 128.713 65.5965C128.648 73.4738 122.213 79.8087 114.341 79.7439C111.851 79.7232 109.517 79.0655 107.49 77.9272C112.585 70.2737 119.305 63.7946 127.151 58.9814Z" fill="#414749"/>
<path d="M218.64 112.845C218.64 142.385 196.837 166.83 168.462 170.938C165.698 171.336 162.873 171.543 160 171.543C147.483 171.543 135.883 167.618 126.361 160.929C111.243 150.312 101.36 132.732 101.36 112.845C101.36 80.4285 127.615 54.1472 160 54.1472C192.385 54.1472 218.64 80.4285 218.64 112.845Z" fill="#F9E8D4"/>
<path d="M177.452 157.712L168.462 170.938C165.698 171.336 162.873 171.543 160 171.543C147.483 171.543 135.883 167.618 126.36 160.929C124.653 156.946 123.627 153.291 123.028 150.634C122.618 148.822 123.047 146.958 124.195 145.517C125.343 144.082 127.117 143.225 128.946 143.225C130.23 143.225 131.463 143.629 132.511 144.395C136.381 147.217 141.918 151.987 146.326 158.7C146.502 158.971 146.681 159.244 146.86 159.521L166.867 148.008L177.452 157.712Z" fill="#EFCDB1"/>
<path d="M218.64 112.845C218.64 145.261 192.385 171.542 160 171.542C159 171.542 158.007 171.518 157.023 171.47C188.023 169.913 212.683 144.261 212.683 112.845C212.683 81.4285 188.023 55.7769 157.023 54.2203C158.007 54.1716 159 54.1475 160 54.1475C192.385 54.1472 218.64 80.4284 218.64 112.845Z" fill="#EFCDB1"/>
<path d="M173.683 101.571C173.683 101.571 162.554 105.453 167.009 119.769C171.464 134.085 181.631 143.933 191.108 139.009C200.585 134.085 198.335 114.429 191.955 105.776C185.574 97.1228 173.683 101.571 173.683 101.571Z" fill="#585E60"/>
<path d="M146.316 101.571C146.316 101.571 157.445 105.453 152.99 119.769C148.535 134.085 138.368 143.933 128.892 139.009C119.415 134.085 121.664 114.429 128.045 105.776C134.426 97.1228 146.316 101.571 146.316 101.571Z" fill="#585E60"/>
<path d="M160 141.084C163.474 141.084 166.29 138.265 166.29 134.787C166.29 131.31 163.474 128.491 160 128.491C156.526 128.491 153.71 131.31 153.71 134.787C153.71 138.265 156.526 141.084 160 141.084Z" fill="#8B5016"/>
<path d="M127.472 149.63C127.166 148.27 128.704 147.26 129.83 148.081C133.09 150.458 138.381 154.905 142.519 161.205C143.057 162.023 143.572 162.838 144.065 163.641C144.843 164.911 145.566 166.157 146.227 167.366C147.29 169.309 148.19 171.156 148.909 172.84L142.613 176.983C140.719 174.987 138.649 172.46 136.583 169.57C135.879 168.584 135.175 167.56 134.478 166.496C133.814 165.485 133.205 164.467 132.648 163.45C129.732 158.137 128.217 152.937 127.472 149.63Z" fill="#009655"/>
<path d="M136.583 169.571L144.064 163.642C144.843 164.912 145.565 166.158 146.227 167.367C147.289 169.31 148.189 171.157 148.908 172.841L142.612 176.984C140.719 174.987 138.648 172.461 136.583 169.571Z" fill="#006B42"/>
<path d="M132.647 163.45C135.44 164.116 139.058 165.135 146.227 167.367C147.289 169.309 148.19 171.157 148.908 172.84L142.613 176.984C140.072 174.307 137.22 170.678 134.478 166.497C133.814 165.486 133.205 164.468 132.647 163.45Z" fill="#006B42"/>
<path d="M111.913 168.065C110.542 167.37 110.968 165.309 112.502 165.216C116.528 164.971 122.675 164.974 129.292 166.345C132.408 166.989 135.339 167.723 137.948 168.488C139.439 168.925 140.822 169.373 142.077 169.822L140.888 175.578C137.961 175.391 134.457 174.948 130.664 174.26C129.719 174.088 128.753 173.899 127.775 173.696C121.157 172.326 115.512 169.888 111.913 168.065Z" fill="#00C37A"/>
<path d="M130.664 174.26L137.948 168.488C139.439 168.925 140.822 169.372 142.077 169.822L140.888 175.578C137.961 175.391 134.458 174.948 130.664 174.26Z" fill="#009655"/>
<path d="M123.698 184.312L169.149 147.213L177.452 157.712L132.001 194.81L123.698 184.312Z" fill="#A4E869"/>
<path d="M123.698 184.311L129.199 179.952C129.343 180.104 129.482 180.265 129.614 180.432L137.113 189.913C137.251 190.088 137.382 190.268 137.5 190.452L132.001 194.81L123.698 184.311Z" fill="#60DC4D"/>
<path d="M169.149 147.213L171.541 150.238L126.091 187.335L123.698 184.311L169.149 147.213Z" fill="#60DC4D"/>
<path d="M126.832 182.638L134.33 192.117C135.528 193.632 135.272 195.832 133.759 197.031C132.246 198.231 130.048 197.975 128.85 196.46L121.352 186.981C120.154 185.466 120.41 183.265 121.923 182.066C123.436 180.867 125.634 181.123 126.832 182.638Z" fill="#A4E869"/>
<path d="M175.771 143.601C171.118 143.601 167.345 147.377 167.345 152.035C167.345 156.693 171.118 160.469 175.771 160.469L181.064 159.829V143.601H175.771Z" fill="#F9E8D4"/>
<path d="M157.529 56.4175C158.421 56.3792 159.229 56.3606 160 56.3606C188.79 56.3606 212.897 77.9278 216.077 106.528C216.202 107.659 217.159 108.495 218.27 108.495C218.351 108.495 218.434 108.491 218.517 108.482C219.73 108.347 220.604 107.253 220.469 106.039C219.49 97.2304 216.606 88.8249 212.09 81.3525C217.97 78.7893 221.945 72.9251 221.999 66.3734C222.037 61.9714 220.36 57.819 217.276 54.681C214.193 51.5433 210.074 49.7953 205.678 49.7591C198.883 49.7051 192.805 53.8352 190.291 60.0158C181.143 54.7544 170.727 51.9368 160 51.9368C159.166 51.9368 158.296 51.9565 157.339 51.9978C156.12 52.0503 155.174 53.0822 155.227 54.3023C155.279 55.523 156.307 56.4723 157.529 56.4175ZM205.641 54.1829C208.857 54.2094 211.87 55.4879 214.125 57.783C216.381 60.078 217.608 63.1154 217.58 66.336C217.538 71.3924 214.306 75.8899 209.614 77.5822C207.04 73.9594 204.061 70.5991 200.706 67.5743C198.618 65.6916 196.416 63.9675 194.117 62.407C195.756 57.4886 200.39 54.1369 205.641 54.1829Z" fill="black"/>
<path d="M218.676 113.289C217.445 113.228 216.424 114.18 216.37 115.401C215.147 142.885 194.05 165.367 167.292 168.857L174.907 162.642C175.192 162.665 175.48 162.68 175.771 162.68C176.992 162.68 177.981 161.69 177.981 160.468C177.981 159.246 176.992 158.256 175.771 158.256C172.344 158.256 169.555 155.465 169.555 152.034C169.555 148.603 172.344 145.812 175.771 145.812C176.992 145.812 177.981 144.822 177.981 143.6C177.981 142.378 176.992 141.388 175.771 141.388C172.049 141.388 168.769 143.314 166.868 146.221L162.21 150.022V143.002C165.829 142.026 168.5 138.713 168.5 134.787C168.5 130.096 164.687 126.279 160 126.279C155.313 126.279 151.5 130.095 151.5 134.787C151.5 138.713 154.172 142.025 157.791 143.002V153.629L146.276 163.027C145.661 162.008 145.024 160.993 144.366 159.991C140.145 153.564 134.839 148.993 131.13 146.29C129.865 145.369 128.205 145.329 126.9 146.188C125.595 147.047 124.974 148.589 125.317 150.117C125.901 152.708 126.849 156.04 128.357 159.629C112.916 149.189 103.57 131.818 103.57 112.844C103.57 86.106 122.537 62.8297 148.668 57.4984C149.864 57.2545 150.636 56.0864 150.392 54.8893C150.148 53.6922 148.981 52.9189 147.786 53.1637C141.503 54.4454 135.481 56.7334 129.946 59.8873C127.643 53.5123 121.532 49.0578 114.598 49C114.549 49.0009 114.501 49.0006 114.453 49.0006C110.109 49.0006 106.017 50.6769 102.917 53.7293C99.7828 56.8157 98.0365 60.9396 98.0006 65.3416C97.9428 72.2082 102.075 78.2576 108.282 80.7553C102.354 90.3382 99.1505 101.475 99.1505 112.845C99.1505 124.26 102.325 135.389 108.33 145.029C112.953 152.452 119.104 158.767 126.33 163.58C120.803 162.769 115.812 162.8 112.367 163.007C110.669 163.111 109.298 164.301 108.954 165.968C108.611 167.634 109.399 169.27 110.915 170.037C114.604 171.908 120.447 174.437 127.328 175.863C128.203 176.043 129.07 176.209 129.932 176.368L126.123 179.477C125.686 179.311 125.228 179.192 124.751 179.137C123.238 178.962 121.746 179.385 120.552 180.332C119.357 181.279 118.602 182.634 118.426 184.149C118.25 185.664 118.674 187.157 119.62 188.353L127.118 197.833C128.064 199.029 129.418 199.785 130.932 199.961C131.156 199.987 131.38 200 131.602 200C132.881 200 134.114 199.573 135.132 198.766C136.326 197.819 137.081 196.463 137.257 194.948C137.318 194.426 137.302 193.907 137.223 193.401L161.354 173.705C161.46 173.72 161.567 173.731 161.677 173.731C161.698 173.731 161.719 173.731 161.74 173.73C177.15 173.297 191.693 167.088 202.69 156.248C213.675 145.419 220.101 130.983 220.785 115.598C220.839 114.377 219.895 113.344 218.676 113.289ZM155.919 134.788C155.919 132.536 157.75 130.703 160 130.703C162.249 130.703 164.08 132.536 164.08 134.788C164.08 137.04 162.249 138.872 160 138.872C157.75 138.872 155.919 137.04 155.919 134.788ZM102.42 65.3784C102.446 62.1579 103.724 59.1408 106.017 56.8829C108.309 54.625 111.34 53.3925 114.561 53.4247C119.957 53.4692 124.67 57.1504 126.076 62.2906C121.225 65.5551 116.827 69.5194 113.061 74.083C112.285 75.0238 111.541 75.9876 110.826 76.9703C105.798 75.3892 102.375 70.723 102.42 65.3784ZM169.979 160.956L135.051 189.465L129.491 182.435L165.211 153.281C165.587 156.492 167.396 159.27 169.979 160.956ZM140.673 162.421C141.415 163.553 142.131 164.702 142.815 165.853L138.925 169.027C138.043 167.823 137.171 166.573 136.322 165.283C132.939 160.127 131.069 154.684 130.101 151.063C133.037 153.387 137.284 157.262 140.673 162.421ZM128.221 171.531C123.225 170.495 118.805 168.829 115.464 167.315C119.14 167.257 123.861 167.48 128.845 168.51C130.577 168.869 132.297 169.268 133.973 169.695C134.475 170.42 134.983 171.132 135.495 171.827L134.493 172.645C132.463 172.343 130.361 171.972 128.221 171.531ZM132.866 194.437C132.827 194.778 132.657 195.084 132.388 195.297C132.119 195.511 131.782 195.607 131.442 195.566C131.101 195.527 130.795 195.357 130.582 195.087L123.085 185.607C122.872 185.338 122.776 185.002 122.816 184.66C122.855 184.319 123.025 184.014 123.294 183.8C123.524 183.618 123.802 183.522 124.09 183.522C124.14 183.522 124.19 183.525 124.241 183.531C124.581 183.571 124.887 183.741 125.1 184.01L132.597 193.49C132.811 193.759 132.906 194.096 132.866 194.437Z" fill="black"/>
<path d="M164.899 120.427C168.119 130.771 174.027 138.61 180.705 141.397C182.47 142.134 184.257 142.502 186.025 142.502C188.108 142.502 190.165 141.991 192.126 140.972C195.54 139.198 197.923 135.766 199.017 131.047C200.938 122.764 198.617 111.087 193.732 104.462C186.446 94.5796 173.459 99.2936 172.909 99.4989L172.91 99.4992C172.058 99.8242 160.019 104.744 164.899 120.427ZM170.281 106.836C172.068 104.532 174.401 103.663 174.424 103.655C174.433 103.651 174.444 103.648 174.452 103.645C174.875 103.489 184.881 99.9071 190.177 107.09C194.313 112.699 196.347 122.997 194.712 130.047C194.159 132.432 192.908 135.582 190.09 137.046C187.628 138.325 185.043 138.415 182.406 137.315C177.003 135.06 171.911 128.084 169.119 119.111C167.531 114.007 167.921 109.877 170.281 106.836Z" fill="black"/>
<path d="M147.09 99.4993C146.541 99.2937 133.554 94.58 126.267 104.462C124.628 106.686 123.209 109.599 122.164 112.887C121.794 114.051 122.436 115.295 123.599 115.665C124.762 116.036 126.005 115.392 126.375 114.228C127.275 111.396 128.468 108.928 129.823 107.09C135.119 99.9074 145.125 103.489 145.543 103.643C145.558 103.649 145.574 103.654 145.589 103.66C145.961 103.789 154.656 106.978 150.881 119.111C148.088 128.085 142.997 135.06 137.593 137.315C134.957 138.415 132.371 138.325 129.91 137.046C126.298 135.17 124.378 129.881 124.772 122.899C124.84 121.679 123.908 120.635 122.69 120.566C121.469 120.497 120.428 121.43 120.359 122.649C119.856 131.551 122.595 138.23 127.873 140.972C129.835 141.991 131.891 142.502 133.975 142.502C135.742 142.502 137.529 142.134 139.294 141.398C145.972 138.611 151.881 130.771 155.1 120.427C159.98 104.744 147.942 99.8243 147.09 99.4993Z" fill="black"/>
<path d="M172.858 121.659C174.079 121.659 175.068 120.669 175.068 119.447V119.26C175.068 118.038 174.079 117.048 172.858 117.048C171.638 117.048 170.648 118.038 170.648 119.26V119.447C170.648 120.669 171.638 121.659 172.858 121.659Z" fill="black"/>
<path d="M149.351 119.447V119.26C149.351 118.038 148.362 117.048 147.141 117.048C145.921 117.048 144.932 118.038 144.932 119.26V119.447C144.932 120.669 145.921 121.659 147.141 121.659C148.362 121.659 149.351 120.669 149.351 119.447Z" fill="black"/>
</svg>
