<svg width="320" height="276" viewBox="0 0 320 276" fill="none" xmlns="http://www.w3.org/2000/svg">
<path d="M232.149 56.7645C233.26 56.5241 234.343 54.6287 236.137 57.998L236.137 57.9978C237.146 57.6012 238.154 57.2045 239.175 56.8361C240.483 56.3453 244.107 56.9339 245.379 57.8251C247.73 59.4895 247.646 59.4589 248.412 63.4327C248.732 65.063 249.481 66.7774 250 68.4562C250.315 69.4886 251.022 71.1876 250.81 71.4446C250.293 72.0317 249.622 72.3843 250.48 73.6853C251.79 75.6272 251.143 72.6027 251.553 73.0614C252.165 73.7543 252.671 74.8498 253.129 75.8421L253.148 75.8818C253.671 77.0255 255.818 74.7769 255.217 78.4333C255.129 78.9377 256.774 80.7033 257.517 81.9866C258.402 83.4762 258.628 85.3466 260.15 86.5312C260.762 87.0037 259.858 89.8227 258.696 89.6512C256.575 89.3221 256.406 92.5275 254.652 92.8085C254.565 92.8125 254.489 93.1783 254.537 93.2911C257.305 98.445 252.62 96.7083 252.944 99.6037C250.594 98.9054 249.716 100.947 248.786 102.91C246.325 101.492 246.812 104.351 246.502 106.051C246.474 106.196 246.625 106.465 246.694 106.669C247.057 107.814 248.322 109.442 246.909 109.644C246.526 109.707 245.707 108.289 245.065 107.83C244.778 107.618 244.217 107.891 244.095 108.276C243.573 109.899 246.397 110.495 245.685 112.299C246.017 112.491 246.538 113.002 246.665 112.881C247.702 111.673 249.978 113.536 250.64 111.32C250.708 111.104 251.227 113.587 251.659 115.11C251.864 115.064 252.067 115.081 252.257 115.198C252.278 116.895 251.995 116.292 251.659 115.11C251.209 115.21 250.749 115.613 250.392 115.926L250.39 115.927C249.411 116.811 250.026 119.216 251.488 120.426C251.934 120.803 252.419 121.23 252.865 121.439C254.627 122.222 254.298 123.462 254.07 124.726L254.061 124.776C254.004 125.092 253.936 125.47 254.002 125.822L254.036 126.005C254.347 127.679 254.355 127.725 253.95 127.544C253.643 127.408 253.318 126.98 253.046 126.929C251.507 126.752 249.845 126.16 248.648 127.204C248.382 127.417 247.854 127.142 247.45 127.115C247.468 126.74 247.514 126.387 247.503 126.025C247.385 124.576 248.615 123.484 247.35 121.857C245.435 119.373 246.043 123.647 244.616 123.022C244.086 122.782 243.587 123.328 243.112 123.597C241.952 124.225 239.013 124.111 237.707 123.434C237.303 123.24 236.76 123.138 236.518 123.408C235.94 124.021 236.899 126.479 235.463 126.124C233.9 125.724 234.518 127.76 234.429 128.765C234.25 130.941 235.143 129.561 235.64 129.849C236.569 130.353 237.24 131.8 236.644 132.288C235.39 133.322 235.784 134.121 237.225 135.407C237.372 135.544 237.543 136.405 237.425 136.589C236.674 138.009 235.818 139.307 235.067 140.728C234.982 140.864 235.294 141.764 235.523 141.966C237.383 143.774 237.557 144.1 237.217 145.478C237.174 145.63 237.129 145.816 237.035 145.889C236.521 146.275 235.51 146.539 237.192 147.555C237.798 147.931 238.761 148.054 238.976 147.595C239.261 147.007 238.967 145.732 238.923 144.751C238.9 144.361 238.891 143.964 238.868 143.574C239.133 143.861 239.462 144.088 239.663 144.435C239.988 145.03 240.235 145.692 240.496 146.347C241.461 148.736 242.721 149.766 243.96 148.904C245.123 148.075 246.553 148.499 247.996 148.784C248.252 148.841 248.535 149.087 248.813 149.236C248.701 149.517 248.645 149.974 248.449 150.057C247.712 150.338 246.911 151.013 246.136 150.577C244.876 149.88 244.803 150.212 245.455 151.7C246.084 153.133 246.534 154.274 245.318 154.559C245.215 154.57 245.409 155.82 245.674 156.274C245.903 156.643 246.533 156.908 246.832 156.814C248.01 156.479 249.058 155.798 250.281 155.61C250.71 155.528 251.472 156.436 252.099 156.902C251.878 157.263 251.72 157.73 251.424 157.957C250.094 158.857 248.729 159.672 247.387 160.544C247.218 160.65 247.009 161.039 246.97 160.989C244.653 158.276 243.995 160.457 242.84 161.516C242.175 162.133 240.6 161.37 240.14 162.133C239.126 163.899 238.422 166.099 237.884 168.396C237.562 169.733 236.275 170.315 237.173 172.799C237.429 173.523 237.232 174.108 238.039 174.663C238.368 174.89 238.955 175.973 238.903 176.229C238.684 177.222 237.989 177.852 237.969 178.894C237.942 180.672 237.203 179.987 236.326 179.727C235.885 179.615 235.783 181.259 235.254 181.484C233.925 182.051 232.524 182.615 230.997 182.466C229.901 182.366 229.056 182.226 228.74 183.661C228.627 184.109 228.11 184.696 228.017 184.603C225.631 182.02 225.924 185.595 224.906 186.096C223.634 186.671 222.873 188.696 221.521 188.705C220.138 188.728 219.514 189.861 218.445 190.283C217.047 190.813 215.669 191.433 214.295 192.019C213.042 192.553 211.836 193.2 210.523 193.594C209.297 193.983 207.268 192.448 207.016 195.122C205.53 193.689 205.133 196.525 203.638 195.028C202.967 197.348 201.012 197.281 199.64 198.333C197.071 200.262 193.592 199.511 190.678 200.42C189.705 200.734 188.11 199.881 186.868 198.977C185.502 197.992 185.293 200.182 184.076 199.167C182.713 201.581 180.988 202.85 177.904 200.431C177.66 200.235 177.28 201.898 176.824 201.792C175.557 201.498 174.221 200.835 172.918 200.123C171.561 199.368 167.703 198.313 166.625 198.672C165.622 199 164.776 199.527 163.374 198.625C162.439 198.023 161.178 197.827 160.58 198.349C159.588 199.205 159.015 200.749 157.659 201.127C157.375 201.215 156.201 202.982 158.324 204.278C158.202 204.663 158.162 205.28 157.908 205.355C155.897 206.079 154.969 208.508 153.635 210.277C153.339 210.67 153.159 211.713 152.921 211.615C151.95 211.095 149.56 211.421 150 213.5L146.579 214.5C145.892 214.85 146.186 215.968 145.5 216.309C142.869 217.616 139.546 217.879 139.821 216.932C139.35 217 138.542 216.778 138.459 217.213C138.116 218.626 137.924 219.808 136.425 217.38C136.145 216.933 135.414 216.977 134.908 216.793C134.443 216.625 133.991 216.484 133.541 216.309C133.813 216.026 134.278 215.861 134.333 215.404C134.514 214.027 132.075 210.734 130.885 211.041C129.176 211.469 127.44 209.909 125.724 209.274C124.149 208.678 122.66 209.08 120.982 207.362C120.036 206.398 119.926 206.978 119.56 207.835C119.284 208.485 118.065 207.972 117.362 208.205C115.368 208.888 113.57 204.754 111.617 204.82C110.182 202.331 107.577 200.408 108.136 196.903C108.148 196.764 107.256 195.845 106.759 195.39C106.289 194.957 105.767 194.612 105.273 194.29C104.426 193.684 103.467 192.693 102.758 192.662C101.774 192.614 100.961 193.261 100.133 193.747C100.01 193.833 100.081 194.503 100.207 194.883C101.054 197.455 100.28 198.319 99.0051 198.762C98.7968 198.817 98.7808 199.324 98.6536 199.612C99.0669 199.702 99.4713 199.73 99.8936 199.883C100.162 199.969 100.433 200.186 100.708 200.37C100.581 200.657 100.52 201.016 100.329 201.198C99.1804 202.187 97.5592 200.645 96.1922 200.494C95.7184 200.43 95.3464 200.855 94.9205 201.07C95.3243 201.431 96.0238 201.9 96.0596 202.151C96.1488 202.946 95.9846 203.65 95.932 204.406C95.5975 204.081 95.2661 203.723 94.9285 203.433C94.5518 203.094 94.127 202.641 93.771 202.56C93.2581 202.445 92.8676 203.078 92.6923 201.453C92.4991 199.702 93.066 196.426 90.1904 197.719C89.8431 197.867 88.8393 197.061 88.4179 196.408C87.1205 194.327 85.7107 192.695 84.0769 191.458C83.8447 191.29 83.5111 190.465 83.5388 190.154C83.6345 188.913 83.1406 188.257 82.2786 187.491C80.9978 186.37 79.6735 185.901 78.4242 183.933C77.4941 182.463 75.6533 182.247 74.9936 179.695C74.9276 179.457 74.3489 178.937 74.213 178.994C73.1799 179.502 71.6605 178.449 71.418 177.252C71.008 175.16 70.1853 172.644 71.2142 171.039C71.65 170.386 71.6883 169.136 71.8108 168.084C71.8293 167.876 71.4288 167.314 71.1788 167.02C71.1125 166.948 70.759 167.166 70.7405 167.374C70.5959 169.002 69.758 168.293 68.7867 167.94C67.2664 167.388 67.5014 164.087 65.9014 164.269C63.9814 164.454 64.1096 161.866 63.3391 160.561C62.9479 159.895 62.8589 158.932 62.6551 158.119C63.1249 158.719 63.5766 159.36 64.0646 159.919C64.17 160.04 64.5658 159.838 64.563 159.706C64.4738 158.911 65.4619 158.256 64.0149 157.206C63.632 156.936 63.0615 155.179 63.0766 155.173C64.847 154.218 65.1443 153.325 62.3252 151.526C61.2247 150.828 61.2885 148.801 62.3792 148.136C63.4549 147.478 63.4247 147.49 62.4651 145.533C62.1192 144.847 61.8309 144.003 61.7053 143.29C61.2956 141.031 61.4078 138.949 60.259 136.506C59.856 135.644 59.9503 133.437 60.3217 133.345C61.8856 133.079 61.6446 131.048 62.0636 129.602C62.27 128.914 63.4505 128.711 62.4806 127.524C61.577 126.41 60.549 123.914 59.4764 124.538C57.5458 125.661 57.0038 123.092 56.4694 121.42C56.0161 119.979 56.3612 117.565 55.9454 117.176C54.3633 115.683 55.9832 114.46 54.8351 113.315C55.1987 112.494 55.352 111.095 55.962 110.935C56.8981 110.703 58.1437 111.238 59.2599 111.596C59.3866 111.642 59.8251 112.922 59.749 113.288C59.6363 113.902 59.2101 114.284 58.9195 114.775C59.4567 114.779 60.0902 115.009 60.5161 114.794C61.3107 114.355 61.9939 113.697 62.6772 113.039C63.0128 112.696 62.717 110.956 62.1814 109.951C61.2096 108.131 60.8958 106.265 61.7032 105.354C63.1307 103.679 65.0219 102.673 65.1573 99.3478C68.4019 97.6647 69.1311 93.0535 70.1134 88.7011C70.2532 88.1081 70.7759 87.7853 71.2441 87.5857C72.7303 86.8855 74.2495 86.3046 75.7477 85.6326C76.2039 85.4048 76.5879 85.0077 77.011 84.6607C76.6075 84.1326 75.8482 83.3562 75.8577 83.0855C75.9229 82.0243 75.7383 80.5028 76.9664 80.7461C77.609 80.8721 78.2579 80.9289 78.9067 80.9857C78.5032 80.4576 78.0725 79.9078 77.7173 79.3258C77.6661 79.2477 77.9055 78.6789 78.1019 78.5952C79.1803 78.0688 80.4453 77.8963 80.3586 75.5997C80.3416 74.9736 80.8525 74.4557 81.2785 74.2408C82.2965 73.7402 83.2457 72.8688 84.7711 74.0188C84.7113 71.9107 86.1594 72.2935 87.0356 71.7533C87.3589 71.5488 87.7938 71.3968 88.201 71.5565C89.0034 71.8479 90.1665 72.9855 90.5595 72.6513C91.8592 71.5973 93.135 70.32 93.9168 68.5533C94.4834 67.245 94.3086 67.0861 95.4435 68.8692C97.5357 72.1444 99.7278 71.6766 101.802 71.5593C102.372 71.5161 102.985 71.6551 103.588 71.7311C102.544 68.1093 103.994 68.9578 105.669 69.4108C106.875 69.7298 107.973 68.8287 108.949 68.1459C109.242 67.9543 108.927 66.5883 108.883 65.7736C109.561 66.4847 110.275 67.1136 110.932 67.9004C112.285 69.5241 112.769 68.4841 113.353 67.6351C114.322 66.2222 114.152 62.7274 116.998 64.7145C117.095 64.7733 117.376 64.2199 117.325 64.1417C115.758 61.0095 118.315 62.3196 118.456 61.0594C118.545 60.2214 116.914 57.3163 119.383 59.2976C119.476 59.3911 119.794 56.9554 120.321 56.0975C120.845 55.2742 122.006 55.6125 122.332 54.0736C122.536 53.0866 123.873 53.0833 124.682 52.6382C125.477 52.1995 125.529 51.9441 124.875 51.2894C124.408 50.6549 123.391 50.3216 123.379 50.4602C123.185 52.643 121.424 51.8604 120.526 52.6431C120.354 52.7832 119.995 52.5695 119.696 52.4968C119.685 51.9682 119.508 51.1768 119.705 50.9263C120.682 49.5763 121.777 48.3763 122.817 47.1327C123.579 46.2411 122.49 46.0721 122.219 45.5208C121.949 44.9694 121.896 43.9251 122.093 43.5078C122.59 42.3292 122.853 44.1174 123.211 44.3311C123.721 44.6473 124.366 44.9055 124.774 44.7317C126.683 44.018 128.547 43.1568 130.447 42.3803C131.066 42.1164 131.676 41.7895 132.34 41.6731C133.047 41.5719 133.988 43.4041 134.019 44.6909C134.036 45.3171 134.185 46.4203 134.415 46.6227C134.939 47.0992 135.941 48.572 135.957 46.5986C135.952 46.1674 136.453 45.9203 136.8 45.7723C138.504 45.0794 140 43.7749 142.295 44.9301C143.102 42.5526 144.417 41.3253 146.917 42.7932C146.875 39.0108 149.763 42.6466 150.942 41.4772C152.04 40.4093 153.455 39.2062 155.514 40.3952C155.638 40.4758 155.861 40.5807 155.879 40.5396C156.475 37.9187 158.166 37.5312 160.08 37.2486C161.994 36.9661 163.692 36.0089 165.348 35.0364C166.451 34.3997 167.271 33.1834 168.289 32.3491C169.226 31.6164 170.208 31.1979 170.958 29.9445C171.9 28.3431 173.932 27.8768 175.725 27.8126C176.745 27.7777 178.339 29.2983 179.535 30.5553C181.897 33.082 184.108 34.3733 186.288 33.7105C186.512 33.6486 186.579 33.22 186.73 32.9888C186.501 32.7864 186.164 32.3301 186.028 32.3881C184.415 33.0423 184.659 31.6049 184.938 30.5857C185.093 29.9862 185.55 29.5917 185.991 29.3703C187.329 28.6998 188.706 28.0793 190.129 27.6063C191.086 27.2982 191.386 26.7037 190.637 24.9893C190.565 24.8201 191.052 24.2458 191.372 24.076C191.523 24.0116 191.954 24.3946 192.174 24.7009C192.406 25.0355 192.52 25.5537 192.745 25.9575C193.257 26.9062 193.814 27.8356 194.355 28.7714C194.688 28.1294 195.13 27.5745 195.331 26.7889C195.616 25.7004 195.017 24.9225 194.14 24.1629C192.964 23.1639 192.574 21.9969 193.707 21.514C194.401 21.2179 195.247 21.191 196.067 21.2744C196.426 21.3213 196.896 21.9211 197.342 22.2977C197.094 22.6368 196.822 22.9195 196.586 23.2868C196.317 23.7016 196.059 24.1447 195.805 24.5531C196.27 24.8885 196.725 25.328 197.183 25.5659C197.572 25.7668 202.431 24.062 202.83 23.9921C203.696 23.8895 204.764 24.301 205.48 23.9292C206.241 23.538 206.6 22.2852 207.337 21.8375C207.645 21.6395 208.528 22.4965 209.088 23.0577C209.221 23.2012 209.129 24.0738 209.125 24.6089C209.122 24.8103 209.103 25.0182 209.046 25.1761C208.691 26.2275 208.254 27.2136 208.02 28.3802C207.965 28.6703 211.996 29.5855 211.994 28.7862C211.964 25.3655 214.145 27.8027 215.286 27.7163C215.929 27.6755 217.518 28.5983 216.962 30.602C218.778 31.4282 219.75 35.0476 221.642 35.3411L221.65 35.3425C222.432 35.4725 222.773 35.5292 222.545 36.6229C222.192 38.3068 222.188 40.8088 221.266 41.3683C220.194 41.9922 219.906 44.4151 217.862 43.2198C217.129 42.7987 216.183 43.4686 215.66 44.1251C215.118 44.8226 213.46 45.6629 216.079 47.5798C216.312 47.7475 216.666 48.4963 216.645 48.7388C216.344 51.9675 217.236 52.7206 219.082 51.7338C219.157 51.7016 219.56 52.3964 219.792 52.7309C217.981 54.9701 220.988 57.5882 221.531 59.9906C221.561 60.1445 222.499 60.3779 223.015 60.6248C224.357 61.2194 225.215 62.1868 225.052 64.19C224.987 64.9176 225.001 65.7452 225.193 66.5301C225.319 67.0765 225.822 67.6288 226.153 68.1543C227.292 65.9688 231.209 73.0661 231.409 67.7141C232.596 68.9081 233.472 68.5348 234.236 67.9421C234.581 67.6619 234.688 66.9496 234.906 66.4566C234.402 66.0711 233.812 65.356 233.447 65.3784C231.953 65.5154 230.417 65.3034 228.768 63.906C228.403 63.5948 228.079 62.8331 227.88 62.2842C227.799 62.0521 228.171 61.4601 228.211 61.51C230.034 63.2331 229.934 59.7753 231.454 60.6609C231.743 60.8376 232.039 60.6113 232.335 60.5518C232.022 59.9852 231.731 59.176 231.402 58.9494C230.866 58.6114 230.31 58.6482 229.755 58.5182C230.124 58.1275 230.442 57.6587 230.85 57.3181C231.176 57.079 231.59 57.0027 232.149 56.7645Z" fill="#FFE68E"/>
<path d="M224.335 98.2291H93.9487C88.619 98.2291 86.593 91.2493 91.0886 88.3821L105.043 79.4868L107.173 78.1288L156.282 46.8205C158.027 45.7057 160.254 45.7057 161.999 46.8205L184.9 61.4206L221.614 84.8269L227.192 88.3821C231.691 91.2493 229.665 98.2291 224.335 98.2291Z" fill="#F9F3F1"/>
<path d="M121.658 108.337H198.262V175.644H121.658V108.337Z" fill="#CDBFBA"/>
<path d="M141.355 175.051V142.393C141.355 137.665 144.295 133.836 147.918 133.836H170.548C174.171 133.836 177.11 137.665 177.11 142.393V175.051H141.355Z" fill="#F9F3F1"/>
<path d="M156.79 133.837C153.167 133.837 150.227 137.665 150.227 142.394V175.051H141.354V142.394C141.354 137.665 144.294 133.837 147.917 133.837H156.79Z" fill="#E1D3CE"/>
<path d="M222.729 98.1475V106.759C222.729 107.788 221.894 108.625 220.868 108.625H213.385H194.619H127H108.235H98.4562C97.4266 108.625 96.5955 107.788 96.5955 106.759V98.1475H222.729Z" fill="#F9F3F1"/>
<path d="M223.243 189.461H97.1471C94.5127 189.461 92.377 187.32 92.377 184.679V179.24C92.377 176.599 94.5127 174.458 97.1471 174.458H223.243C225.877 174.458 228.013 176.599 228.013 179.24V184.679C228.013 187.32 225.877 189.461 223.243 189.461Z" fill="#F9F3F1"/>
<path d="M160.122 89.6842C167.643 89.6842 173.741 83.5715 173.741 76.0312C173.741 68.4908 167.643 62.3782 160.122 62.3782C152.6 62.3782 146.503 68.4908 146.503 76.0312C146.503 83.5715 152.6 89.6842 160.122 89.6842Z" fill="#FAF8F8"/>
<path d="M103.312 108.625H122.078V166.156H103.312V108.625Z" fill="#F9F3F1"/>
<path d="M197.786 108.625H216.553V165.86H197.786V108.625Z" fill="#F9F3F1"/>
<path d="M98.5884 171.099V169.219C98.5884 167.364 100.089 165.86 101.939 165.86H122.152C124.003 165.86 125.503 167.364 125.503 169.219V171.099C125.503 172.954 124.003 174.458 122.152 174.458H101.939C100.089 174.458 98.5884 172.954 98.5884 171.099Z" fill="#F9F3F1"/>
<path d="M193.234 171.099V169.219C193.234 167.364 194.735 165.86 196.585 165.86H216.798C218.649 165.86 220.149 167.364 220.149 169.219V171.099C220.149 172.954 218.649 174.458 216.798 174.458H196.585C194.734 174.458 193.234 172.954 193.234 171.099Z" fill="#F9F3F1"/>
<path d="M210.576 85.4994C222.07 85.4994 231.388 76.1063 231.388 64.5193C231.388 52.9324 222.07 43.5393 210.576 43.5393C199.081 43.5393 189.763 52.9324 189.763 64.5193C189.763 76.1063 199.081 85.4994 210.576 85.4994Z" fill="#FFB600"/>
<path d="M210.673 77.0477C217.508 77.0477 223.048 71.4624 223.048 64.5724C223.048 57.6825 217.508 52.0972 210.673 52.0972C203.838 52.0972 198.297 57.6825 198.297 64.5724C198.297 71.4624 203.838 77.0477 210.673 77.0477Z" fill="#FFB600"/>
<path d="M106.019 189.462H97.1457C94.5133 189.462 92.3779 187.321 92.3779 184.679V179.241C92.3779 176.599 94.5133 174.458 97.1457 174.458H106.019C103.386 174.458 101.251 176.599 101.251 179.241V184.679C101.251 187.321 103.386 189.462 106.019 189.462Z" fill="#E1D3CE"/>
<path d="M110.813 174.458H101.94C100.089 174.458 98.589 172.955 98.589 171.099V169.219C98.589 167.363 100.089 165.86 101.94 165.86H110.813C108.962 165.86 107.462 167.363 107.462 169.219V171.099C107.462 172.955 108.962 174.458 110.813 174.458Z" fill="#E1D3CE"/>
<path d="M103.312 108.625H112.185V166.156H103.312V108.625Z" fill="#E1D3CE"/>
<path d="M107.329 108.625H98.4562C97.4269 108.625 96.5958 107.788 96.5958 106.76V98.1489H105.469V106.76C105.469 107.788 106.3 108.625 107.329 108.625Z" fill="#E1D3CE"/>
<path d="M164.557 88.9423C163.167 89.4227 161.673 89.6836 160.121 89.6836C152.599 89.6836 146.503 83.5726 146.503 76.0324C146.503 68.4922 152.599 62.3782 160.121 62.3782C161.673 62.3782 163.167 62.6391 164.557 63.1194C159.216 64.9637 155.377 70.0488 155.377 76.0324C155.377 82.0159 159.216 87.0981 164.557 88.9423Z" fill="#F3EAE6"/>
<path d="M102.822 98.2292H93.9487C88.619 98.2292 86.593 91.2494 91.0886 88.3821L100.849 82.1614L99.9617 83.0331C95.4657 87.457 97.492 98.2292 102.822 98.2292Z" fill="#E1D3CE"/>
<path d="M214.548 85.1172C213.258 85.3695 211.923 85.4997 210.559 85.4997C199.064 85.4917 189.755 76.0903 189.763 64.5034C189.771 52.9164 199.099 43.5311 210.593 43.5391C211.944 43.5391 213.266 43.6719 214.546 43.9242C204.961 45.794 197.718 54.2949 197.71 64.5037C197.703 74.7252 204.948 83.2474 214.548 85.1172Z" fill="#FFB600"/>
<path d="M197.787 108.625H206.66V165.86H197.787V108.625Z" fill="#E1D3CE"/>
<path d="M205.459 174.458H196.586C194.735 174.458 193.235 172.955 193.235 171.099V169.219C193.235 167.363 194.735 165.86 196.586 165.86H205.459C203.608 165.86 202.108 167.363 202.108 169.219V171.099C202.108 172.955 203.608 174.458 205.459 174.458Z" fill="#E1D3CE"/>
<path d="M228.437 86.6869L224.125 83.9379C230.099 79.6338 234 72.6134 234 64.6928C234 51.6286 223.398 41 210.366 41C198.812 41 189.175 49.3565 187.136 60.3558L163.025 44.9827C160.566 43.4157 157.387 43.4157 154.928 44.983L89.5154 86.6869C86.6124 88.5374 85.3575 91.8725 86.3187 95.1839C87.2762 98.4825 90.1022 100.617 93.5243 100.633V107.045C93.5243 109.303 95.3565 111.14 97.6088 111.14H100.259V163.122C97.796 163.469 95.8934 165.587 95.8934 168.147V172.574C92.4772 173.031 89.8331 175.969 89.8331 179.517V184.994C89.8331 188.857 92.9685 192 96.8221 192H199.785C201.01 192 202.003 191.004 202.003 189.776C202.003 188.548 201.01 187.552 199.785 187.552H96.8221C95.4145 187.552 94.2696 186.405 94.2696 184.994V179.517C94.2696 178.106 95.4145 176.958 96.8221 176.958H223.275C224.682 176.958 225.827 178.106 225.827 179.517V184.994C225.827 186.405 224.682 187.552 223.275 187.552H209.841C208.616 187.552 207.623 188.548 207.623 189.776C207.623 191.004 208.616 192 209.841 192H223.275C227.128 192 230.264 188.857 230.264 184.994V179.517C230.264 175.654 227.128 172.511 223.275 172.511H222.522V168.147C222.522 165.524 220.526 163.359 217.975 163.094V111.14H220.344C222.596 111.14 224.429 109.303 224.429 107.045V100.633C227.851 100.617 230.677 98.4825 231.634 95.1839C232.595 91.8725 231.34 88.5374 228.437 86.6869ZM210.366 45.4476C220.951 45.4476 229.563 54.081 229.563 64.6928C229.563 75.3048 220.951 83.9379 210.366 83.9379C199.781 83.9379 191.169 75.3045 191.169 64.6928C191.169 54.081 199.781 45.4476 210.366 45.4476ZM118.893 111.14V163.066H104.696V111.14H118.893ZM123.362 172.511H100.33V168.147C100.33 167.798 100.617 167.514 100.97 167.514H122.72C123.074 167.514 123.362 167.798 123.362 168.147V172.511ZM174.915 172.511H143.502V142.373C143.502 138.982 145.499 136.118 147.863 136.118H170.553C172.917 136.118 174.915 138.983 174.915 142.373V172.511ZM218.086 172.511H195.054V168.147C195.054 167.798 195.341 167.514 195.693 167.514H217.447C217.799 167.514 218.086 167.798 218.086 168.147V172.511ZM213.538 163.066H199.342V111.14H213.538V163.066ZM227.374 93.9415C227.059 95.027 226.11 96.187 224.39 96.187H141.075C139.85 96.187 138.857 97.1826 138.857 98.4108C138.857 99.6389 139.85 100.635 141.075 100.635H219.992V106.692H184.997C183.771 106.692 182.779 107.688 182.779 108.916C182.779 110.144 183.771 111.14 184.997 111.14H194.905V163.134C192.48 163.515 190.618 165.615 190.618 168.147V172.511H179.351V142.373C179.351 136.471 175.404 131.67 170.553 131.67H147.863C143.012 131.67 139.065 136.471 139.065 142.373V172.511H127.799V168.147C127.799 165.552 125.843 163.409 123.329 163.106V111.14H174.941C176.166 111.14 177.159 110.144 177.159 108.916C177.159 107.688 176.166 106.692 174.941 106.692H97.9611V100.634H131.019C132.244 100.634 133.237 99.6386 133.237 98.4105C133.237 97.1823 132.244 96.1867 131.019 96.1867H93.563C91.8434 96.1867 90.894 95.0267 90.5787 93.9412C90.2637 92.8554 90.4441 91.3655 91.8961 90.4398L157.308 48.7365C158.322 48.0904 159.632 48.0907 160.644 48.7362L186.75 65.3804C187.115 78.127 197.565 88.3855 210.366 88.3855C213.704 88.3855 216.88 87.6843 219.762 86.4274L226.056 90.4403C227.509 91.3655 227.689 92.8557 227.374 93.9415Z" fill="black"/>
<path d="M160.048 60.166C151.296 60.166 144.175 67.3044 144.175 76.0787C144.175 84.853 151.296 91.9914 160.048 91.9914C168.801 91.9914 175.922 84.853 175.922 76.0787C175.922 67.3044 168.801 60.166 160.048 60.166ZM160.048 87.5441C153.742 87.5441 148.612 82.4009 148.612 76.079C148.612 69.7572 153.742 64.6139 160.048 64.6139C166.354 64.6139 171.485 69.7572 171.485 76.079C171.485 82.4009 166.354 87.5441 160.048 87.5441Z" fill="black"/>
<path d="M210.366 79.2802C218.39 79.2802 224.917 72.7363 224.917 64.6923C224.917 56.6487 218.39 50.1047 210.366 50.1047C202.342 50.1047 195.815 56.6487 195.815 64.6923C195.815 72.7363 202.342 79.2802 210.366 79.2802ZM210.366 54.5527C215.943 54.5527 220.481 59.1014 220.481 64.6926C220.481 70.2839 215.943 74.8329 210.366 74.8329C204.789 74.8329 200.251 70.2842 200.251 64.6926C200.251 59.1014 204.789 54.5527 210.366 54.5527Z" fill="black"/>
</svg>
