<svg width="320" height="276" viewBox="0 0 320 276" fill="none" xmlns="http://www.w3.org/2000/svg">
<path d="M232.149 56.7645C233.26 56.5241 234.343 54.6287 236.137 57.998L236.137 57.9978C237.146 57.6012 238.154 57.2045 239.175 56.8361C240.483 56.3453 244.107 56.9339 245.379 57.8251C247.73 59.4895 247.646 59.4589 248.412 63.4327C248.732 65.063 249.481 66.7774 250 68.4562C250.315 69.4886 251.022 71.1876 250.81 71.4446C250.293 72.0317 249.622 72.3843 250.48 73.6853C251.79 75.6272 251.143 72.6027 251.553 73.0614C252.165 73.7543 252.671 74.8498 253.129 75.8421L253.148 75.8818C253.671 77.0255 255.818 74.7769 255.217 78.4333C255.129 78.9377 256.774 80.7033 257.517 81.9866C258.402 83.4762 258.628 85.3466 260.15 86.5312C260.762 87.0037 259.858 89.8227 258.696 89.6512C256.575 89.3221 256.406 92.5275 254.652 92.8085C254.565 92.8125 254.489 93.1783 254.537 93.2911C257.305 98.445 252.62 96.7083 252.945 99.6037C250.594 98.9054 249.716 100.947 248.786 102.91C246.325 101.492 246.812 104.351 246.502 106.051C246.474 106.196 246.625 106.465 246.694 106.669C247.057 107.814 248.322 109.442 246.909 109.644C246.526 109.707 245.707 108.289 245.065 107.83C244.778 107.618 244.217 107.891 244.095 108.276C243.573 109.899 246.397 110.495 245.685 112.299C246.017 112.491 246.538 113.002 246.665 112.881C247.702 111.673 249.978 113.536 250.64 111.32C250.708 111.104 251.227 113.587 251.659 115.11C251.864 115.064 252.067 115.081 252.257 115.198C252.278 116.895 251.995 116.292 251.659 115.11C251.209 115.21 250.749 115.613 250.392 115.926L250.39 115.927C249.411 116.811 250.026 119.216 251.488 120.426C251.934 120.803 252.419 121.23 252.865 121.439C254.627 122.222 254.298 123.462 254.07 124.726L254.061 124.776C254.004 125.092 253.936 125.47 254.002 125.822L254.036 126.005C254.347 127.679 254.355 127.725 253.95 127.544C253.643 127.408 253.318 126.98 253.046 126.929C251.507 126.752 249.845 126.16 248.648 127.204C248.382 127.417 247.854 127.142 247.45 127.115C247.469 126.74 247.514 126.387 247.503 126.025C247.385 124.576 248.615 123.484 247.35 121.857C245.435 119.373 246.043 123.647 244.616 123.022C244.086 122.782 243.587 123.328 243.112 123.597C241.952 124.225 239.013 124.111 237.707 123.434C237.303 123.24 236.76 123.138 236.518 123.408C235.94 124.021 236.899 126.479 235.463 126.124C233.9 125.724 234.518 127.76 234.429 128.765C234.25 130.941 235.143 129.561 235.641 129.849C236.569 130.353 237.24 131.8 236.644 132.288C235.39 133.322 235.784 134.121 237.225 135.407C237.372 135.544 237.543 136.405 237.425 136.589C236.674 138.009 235.818 139.307 235.067 140.728C234.982 140.864 235.294 141.764 235.523 141.966C237.383 143.774 237.557 144.1 237.217 145.478C237.174 145.63 237.129 145.816 237.035 145.889C236.521 146.275 235.51 146.539 237.192 147.555C237.798 147.931 238.761 148.054 238.976 147.595C239.261 147.007 238.967 145.732 238.923 144.751C238.9 144.361 238.891 143.964 238.868 143.574C239.133 143.861 239.462 144.088 239.663 144.435C239.988 145.03 240.235 145.692 240.496 146.347C241.461 148.736 242.721 149.766 243.96 148.904C245.123 148.075 246.553 148.499 247.996 148.784C248.252 148.841 248.535 149.087 248.813 149.236C248.701 149.517 248.645 149.974 248.449 150.057C247.712 150.338 246.911 151.013 246.136 150.577C244.876 149.88 244.803 150.212 245.455 151.7C246.084 153.133 246.534 154.274 245.318 154.559C245.215 154.57 245.409 155.82 245.674 156.274C245.903 156.643 246.533 156.908 246.832 156.814C248.01 156.479 249.058 155.798 250.281 155.61C250.71 155.528 251.472 156.436 252.099 156.902C251.878 157.263 251.72 157.73 251.424 157.957C250.094 158.857 248.729 159.672 247.387 160.544C247.218 160.65 247.009 161.039 246.97 160.989C244.653 158.276 243.995 160.457 242.84 161.516C242.175 162.133 240.6 161.37 240.14 162.133C239.126 163.899 238.422 166.099 237.884 168.396C237.562 169.733 236.275 170.315 237.173 172.799C237.429 173.523 237.232 174.108 238.04 174.663C238.368 174.89 238.955 175.973 238.903 176.229C238.684 177.222 237.989 177.852 237.969 178.894C237.942 180.672 237.203 179.987 236.326 179.727C235.885 179.615 235.783 181.259 235.254 181.484C233.925 182.051 232.524 182.615 230.997 182.466C229.901 182.366 229.056 182.226 228.74 183.661C228.627 184.109 228.11 184.696 228.017 184.603C225.631 182.02 225.924 185.595 224.906 186.096C223.634 186.671 222.873 188.696 221.521 188.705C220.138 188.728 219.514 189.861 218.445 190.283C217.047 190.813 215.669 191.433 214.295 192.019C213.042 192.553 211.836 193.2 210.523 193.594C209.297 193.983 207.268 192.448 207.016 195.122C205.53 193.689 205.133 196.525 203.638 195.028C202.967 197.348 201.012 197.281 199.64 198.333C197.071 200.262 193.592 199.511 190.678 200.42C189.705 200.734 188.11 199.881 186.868 198.977C185.502 197.992 185.293 200.182 184.076 199.167C182.713 201.581 180.988 202.85 177.904 200.431C177.66 200.235 177.28 201.898 176.824 201.792C175.557 201.498 174.221 200.835 172.918 200.123C171.561 199.368 167.703 198.313 166.625 198.672C165.622 199 164.776 199.527 163.374 198.625C162.439 198.023 161.178 197.827 160.58 198.349C159.588 199.205 159.015 200.749 157.659 201.127C157.375 201.215 156.201 202.982 158.324 204.278C158.202 204.663 158.162 205.28 157.908 205.355C155.897 206.079 154.969 208.508 153.635 210.277C153.339 210.67 153.159 211.713 152.921 211.615C151.95 211.095 149.56 211.421 150 213.5L146.579 214.5C145.892 214.85 146.186 215.968 145.5 216.309C142.869 217.616 139.546 217.879 139.821 216.932C139.35 217 138.542 216.778 138.459 217.213C138.116 218.626 137.924 219.808 136.425 217.38C136.145 216.933 135.414 216.977 134.908 216.793C134.443 216.625 133.991 216.484 133.541 216.309C133.813 216.026 134.278 215.861 134.333 215.404C134.514 214.027 132.075 210.734 130.885 211.041C129.176 211.469 127.44 209.909 125.724 209.274C124.149 208.678 122.66 209.08 120.982 207.362C120.036 206.398 119.926 206.978 119.56 207.835C119.284 208.485 118.065 207.972 117.362 208.205C115.368 208.888 113.57 204.754 111.617 204.82C110.182 202.331 107.577 200.408 108.136 196.903C108.148 196.764 107.256 195.845 106.759 195.39C106.289 194.957 105.767 194.612 105.273 194.29C104.426 193.684 103.467 192.693 102.758 192.662C101.774 192.614 100.961 193.261 100.133 193.747C100.01 193.833 100.081 194.503 100.207 194.883C101.054 197.455 100.28 198.319 99.0052 198.762C98.7968 198.817 98.7809 199.324 98.6536 199.612C99.067 199.702 99.4714 199.73 99.8937 199.883C100.162 199.969 100.433 200.186 100.708 200.37C100.581 200.657 100.52 201.016 100.329 201.198C99.1804 202.187 97.5592 200.645 96.1922 200.494C95.7184 200.43 95.3464 200.855 94.9205 201.07C95.3243 201.431 96.0238 201.9 96.0596 202.151C96.1488 202.946 95.9846 203.65 95.932 204.406C95.5975 204.081 95.2661 203.723 94.9285 203.433C94.5518 203.094 94.127 202.641 93.771 202.56C93.2581 202.445 92.8676 203.078 92.6923 201.453C92.4991 199.702 93.0661 196.426 90.1904 197.719C89.8431 197.867 88.8393 197.061 88.4179 196.408C87.1205 194.327 85.7107 192.695 84.0769 191.458C83.8447 191.29 83.5111 190.465 83.5388 190.154C83.6345 188.913 83.1406 188.257 82.2787 187.491C80.9978 186.37 79.6735 185.901 78.4243 183.933C77.4941 182.463 75.6533 182.247 74.9936 179.695C74.9276 179.457 74.349 178.937 74.213 178.994C73.1799 179.502 71.6605 178.449 71.418 177.252C71.008 175.16 70.1853 172.644 71.2142 171.039C71.65 170.386 71.6883 169.136 71.8108 168.084C71.8293 167.876 71.4288 167.314 71.1788 167.02C71.1125 166.948 70.759 167.166 70.7405 167.374C70.5959 169.002 69.758 168.293 68.7867 167.94C67.2664 167.388 67.5014 164.087 65.9014 164.269C63.9815 164.454 64.1096 161.866 63.3391 160.561C62.9479 159.895 62.859 158.932 62.6551 158.119C63.1249 158.719 63.5766 159.36 64.0646 159.919C64.17 160.04 64.5658 159.838 64.563 159.706C64.4738 158.911 65.4619 158.256 64.0149 157.206C63.632 156.936 63.0615 155.179 63.0766 155.173C64.847 154.218 65.1443 153.325 62.3252 151.526C61.2247 150.828 61.2885 148.801 62.3792 148.136C63.4549 147.478 63.4247 147.49 62.4652 145.533C62.1192 144.847 61.8309 144.003 61.7053 143.29C61.2956 141.031 61.4078 138.949 60.259 136.506C59.856 135.644 59.9503 133.437 60.3217 133.345C61.8856 133.079 61.6446 131.048 62.0636 129.602C62.27 128.914 63.4505 128.711 62.4806 127.524C61.577 126.41 60.549 123.914 59.4764 124.538C57.5458 125.661 57.0038 123.092 56.4694 121.42C56.0161 119.979 56.3613 117.565 55.9454 117.176C54.3633 115.683 55.9832 114.46 54.8352 113.315C55.1988 112.494 55.352 111.095 55.962 110.935C56.8981 110.703 58.1437 111.238 59.2599 111.596C59.3866 111.642 59.8251 112.922 59.749 113.288C59.6363 113.902 59.2101 114.284 58.9195 114.775C59.4567 114.779 60.0902 115.009 60.5161 114.794C61.3107 114.355 61.994 113.697 62.6772 113.039C63.0128 112.696 62.717 110.956 62.1814 109.951C61.2096 108.131 60.8958 106.265 61.7033 105.354C63.1307 103.679 65.0219 102.673 65.1573 99.3478C68.4019 97.6647 69.1311 93.0535 70.1134 88.7011C70.2532 88.1081 70.7759 87.7853 71.2441 87.5857C72.7303 86.8855 74.2495 86.3046 75.7477 85.6326C76.2039 85.4048 76.5879 85.0077 77.011 84.6607C76.6075 84.1326 75.8482 83.3562 75.8577 83.0855C75.9229 82.0243 75.7383 80.5028 76.9664 80.7461C77.6091 80.8721 78.2579 80.9289 78.9067 80.9857C78.5032 80.4576 78.0725 79.9078 77.7173 79.3258C77.6661 79.2477 77.9056 78.6789 78.1019 78.5952C79.1803 78.0688 80.4453 77.8963 80.3586 75.5997C80.3416 74.9736 80.8526 74.4557 81.2785 74.2408C82.2965 73.7402 83.2458 72.8688 84.7711 74.0188C84.7113 71.9107 86.1594 72.2935 87.0356 71.7533C87.3589 71.5488 87.7938 71.3968 88.201 71.5565C89.0034 71.8479 90.1666 72.9855 90.5595 72.6513C91.8592 71.5973 93.1351 70.32 93.9168 68.5533C94.4834 67.245 94.3086 67.0861 95.4435 68.8692C97.5357 72.1444 99.7278 71.6766 101.802 71.5593C102.372 71.5161 102.985 71.6551 103.588 71.7311C102.544 68.1093 103.994 68.9578 105.669 69.4108C106.875 69.7298 107.973 68.8287 108.949 68.1459C109.242 67.9543 108.927 66.5883 108.883 65.7736C109.561 66.4847 110.275 67.1136 110.932 67.9004C112.285 69.5241 112.769 68.4841 113.353 67.6351C114.322 66.2222 114.152 62.7274 116.998 64.7145C117.095 64.7733 117.376 64.2199 117.325 64.1417C115.758 61.0095 118.315 62.3196 118.456 61.0594C118.545 60.2214 116.914 57.3163 119.383 59.2976C119.476 59.3911 119.794 56.9554 120.321 56.0975C120.845 55.2742 122.006 55.6125 122.332 54.0736C122.536 53.0866 123.873 53.0833 124.682 52.6382C125.477 52.1995 125.529 51.9441 124.875 51.2894C124.408 50.6549 123.391 50.3216 123.379 50.4602C123.185 52.643 121.424 51.8604 120.526 52.6431C120.354 52.7832 119.995 52.5695 119.696 52.4968C119.685 51.9682 119.508 51.1768 119.705 50.9263C120.682 49.5763 121.777 48.3763 122.817 47.1327C123.579 46.2411 122.49 46.0721 122.219 45.5208C121.949 44.9694 121.896 43.9251 122.093 43.5078C122.59 42.3292 122.853 44.1174 123.211 44.3311C123.721 44.6473 124.366 44.9055 124.774 44.7317C126.683 44.018 128.547 43.1568 130.447 42.3803C131.066 42.1164 131.676 41.7895 132.34 41.6731C133.047 41.5719 133.988 43.4041 134.019 44.6909C134.036 45.3171 134.185 46.4203 134.415 46.6227C134.939 47.0992 135.941 48.572 135.957 46.5986C135.952 46.1674 136.453 45.9203 136.8 45.7723C138.504 45.0794 140 43.7749 142.295 44.9301C143.102 42.5526 144.417 41.3253 146.917 42.7932C146.875 39.0108 149.763 42.6466 150.942 41.4772C152.04 40.4093 153.455 39.2062 155.514 40.3952C155.638 40.4758 155.861 40.5807 155.879 40.5396C156.475 37.9187 158.166 37.5312 160.08 37.2486C161.994 36.9661 163.692 36.0089 165.348 35.0364C166.451 34.3997 167.271 33.1834 168.289 32.3491C169.226 31.6164 170.208 31.1979 170.958 29.9445C171.9 28.3431 173.932 27.8768 175.725 27.8126C176.745 27.7777 178.339 29.2983 179.535 30.5553C181.897 33.082 184.108 34.3733 186.288 33.7105C186.512 33.6486 186.579 33.22 186.73 32.9888C186.501 32.7864 186.164 32.3301 186.028 32.3881C184.415 33.0423 184.659 31.6049 184.938 30.5857C185.093 29.9862 185.55 29.5917 185.991 29.3703C187.329 28.6998 188.706 28.0793 190.129 27.6063C191.086 27.2982 191.386 26.7037 190.637 24.9893C190.565 24.8201 191.052 24.2458 191.372 24.076C191.523 24.0116 191.954 24.3946 192.174 24.7009C192.406 25.0355 192.52 25.5537 192.745 25.9575C193.257 26.9062 193.814 27.8356 194.355 28.7714C194.688 28.1294 195.13 27.5745 195.331 26.7889C195.616 25.7004 195.017 24.9225 194.14 24.1629C192.964 23.1639 192.574 21.9969 193.707 21.514C194.401 21.2179 195.247 21.191 196.067 21.2744C196.426 21.3213 196.896 21.9211 197.342 22.2977C197.094 22.6368 196.822 22.9195 196.586 23.2868C196.317 23.7016 196.059 24.1447 195.805 24.5531C196.27 24.8885 196.725 25.328 197.183 25.5659C197.572 25.7668 202.431 24.062 202.83 23.9921C203.696 23.8895 204.764 24.301 205.48 23.9292C206.241 23.538 206.6 22.2852 207.337 21.8375C207.645 21.6395 208.528 22.4965 209.088 23.0577C209.221 23.2012 209.129 24.0738 209.125 24.6089C209.122 24.8103 209.103 25.0182 209.046 25.1761C208.691 26.2275 208.254 27.2136 208.02 28.3802C207.965 28.6703 211.996 29.5855 211.994 28.7862C211.964 25.3655 214.145 27.8027 215.286 27.7163C215.929 27.6755 217.518 28.5983 216.962 30.602C218.778 31.4282 219.75 35.0476 221.642 35.3411L221.65 35.3425C222.432 35.4725 222.773 35.5292 222.545 36.6229C222.192 38.3068 222.188 40.8088 221.266 41.3683C220.194 41.9922 219.906 44.4151 217.862 43.2198C217.129 42.7987 216.183 43.4686 215.66 44.1251C215.118 44.8226 213.46 45.6629 216.079 47.5798C216.312 47.7475 216.667 48.4963 216.645 48.7388C216.344 51.9675 217.236 52.7206 219.082 51.7338C219.157 51.7016 219.56 52.3964 219.792 52.7309C217.981 54.9701 220.988 57.5882 221.531 59.9906C221.561 60.1445 222.499 60.3779 223.015 60.6248C224.357 61.2194 225.215 62.1868 225.052 64.19C224.987 64.9176 225.001 65.7452 225.193 66.5301C225.319 67.0765 225.822 67.6288 226.153 68.1543C227.292 65.9688 231.209 73.0661 231.409 67.7141C232.596 68.9081 233.472 68.5348 234.236 67.9421C234.581 67.6619 234.688 66.9496 234.906 66.4566C234.403 66.0711 233.812 65.356 233.447 65.3784C231.953 65.5154 230.417 65.3034 228.768 63.906C228.403 63.5948 228.079 62.8331 227.88 62.2842C227.799 62.0521 228.171 61.4601 228.211 61.51C230.034 63.2331 229.934 59.7753 231.454 60.6609C231.743 60.8376 232.039 60.6113 232.335 60.5518C232.022 59.9852 231.731 59.176 231.402 58.9494C230.866 58.6114 230.31 58.6482 229.755 58.5182C230.124 58.1275 230.442 57.6587 230.85 57.3181C231.176 57.079 231.59 57.0027 232.149 56.7645Z" fill="#FFE68E"/>
<g clip-path="url(#clip0)">
<path d="M214.173 97.9234L144.782 166.258C141.646 169.346 136.562 169.346 133.426 166.258L92.5928 126.046C89.4564 122.957 89.4564 117.95 92.5928 114.863L161.983 46.5275C165.119 43.44 170.203 43.44 173.339 46.5275L214.173 86.7406C217.308 89.828 217.308 94.8348 214.173 97.9234Z" fill="#8CBAFA"/>
<path d="M214.173 86.7406L209.076 81.7212C211.868 84.4711 211.59 89.2037 208.455 92.2923L139.063 160.627C135.928 163.715 131.123 163.989 128.33 161.239L133.426 166.258C136.562 169.346 141.646 169.346 144.782 166.258L214.173 97.9235C217.308 94.8348 217.308 89.8281 214.173 86.7406Z" fill="#5692D8"/>
<path d="M160.849 62.1032L154.05 68.7989C151.376 71.4313 151.376 75.6984 154.05 78.3308C156.723 80.9632 161.056 80.9632 163.73 78.3308L170.529 71.6352C173.202 69.0028 173.202 64.7356 170.529 62.1032C167.856 59.4708 163.522 59.4708 160.849 62.1032Z" fill="#FFB600"/>
<path d="M220.725 118.105H122.592C118.157 118.105 114.562 121.645 114.562 126.011V182.881C114.562 187.248 118.157 190.788 122.592 190.788H220.725C225.159 190.788 228.754 187.248 228.754 182.881V126.011C228.754 121.645 225.159 118.105 220.725 118.105Z" fill="#FFB600"/>
<path d="M220.725 118.105H213.538C217.971 118.105 221.566 121.645 221.566 126.011V182.881C221.566 187.248 217.971 190.788 213.538 190.788H220.725C225.159 190.788 228.754 187.248 228.754 182.881V126.011C228.754 121.645 225.159 118.105 220.725 118.105Z" fill="#FFB600"/>
<path d="M114.562 135.969H228.754V149.632H114.562V135.969Z" fill="#575B7A"/>
<path d="M221.566 135.969H228.754V149.632H221.566V135.969Z" fill="#252D4C"/>
<path d="M200.688 171.461V179.887C200.688 180.54 201.224 181.067 201.886 181.067H215.496C216.158 181.067 216.694 180.54 216.694 179.887V171.461C216.694 170.809 216.158 170.282 215.496 170.282H201.886C201.224 170.282 200.688 170.809 200.688 171.461Z" fill="#E9E9EA"/>
<path d="M159.654 171.461V179.887C159.654 180.54 160.191 181.067 160.852 181.067H189.638C190.3 181.067 190.836 180.54 190.836 179.887V171.461C190.836 170.809 190.3 170.282 189.638 170.282H160.852C160.191 170.282 159.654 170.809 159.654 171.461Z" fill="#E9E9EA"/>
<path d="M94.1814 124.482C91.926 122.261 91.926 118.647 94.1814 116.427L149.221 62.225C150.099 61.3609 150.099 59.9601 149.221 59.0972C148.344 58.232 146.921 58.2332 146.045 59.0972L91.0041 113.299C86.9986 117.244 86.9986 123.664 91.0041 127.61L104.868 141.262C105.305 141.693 105.881 141.909 106.455 141.909C107.031 141.909 107.605 141.694 108.044 141.262C108.921 140.398 108.921 138.997 108.044 138.134L94.1814 124.482Z" fill="black"/>
<path d="M138.336 86.0505L104.347 119.522C103.47 120.386 103.47 121.787 104.347 122.651C104.786 123.082 105.36 123.298 105.936 123.298C106.51 123.298 107.085 123.083 107.523 122.651L141.512 89.1794C142.389 88.3154 142.389 86.9145 141.512 86.0505C140.636 85.1876 139.213 85.1876 138.336 86.0505Z" fill="black"/>
<path d="M158.89 82.5139C161.218 82.5139 163.546 81.6418 165.318 79.8964L172.117 73.2008C175.662 69.7101 175.662 64.0306 172.117 60.5399C168.573 57.0492 162.805 57.0492 159.261 60.5399L152.462 67.2355C150.744 68.9267 149.799 71.1744 149.799 73.566C149.799 75.9565 150.744 78.2052 152.462 79.8964C154.234 81.6418 156.562 82.5139 158.89 82.5139ZM155.638 70.3633L162.437 63.6677C164.23 61.9016 167.148 61.9016 168.94 63.6677C170.733 65.4337 170.733 68.3069 168.94 70.0719L162.141 76.7675C160.349 78.5336 157.431 78.5336 155.638 76.7675C154.77 75.9127 154.291 74.7756 154.291 73.566C154.291 72.3563 154.77 71.2181 155.638 70.3633Z" fill="black"/>
<path d="M220.724 115.893H199.103L215.762 99.4879C219.768 95.5421 219.768 89.1218 215.762 85.1761L174.927 44.9642C172.986 43.053 170.406 42 167.661 42C164.917 42 162.336 43.053 160.394 44.9642L152.393 52.8441C151.516 53.7082 151.516 55.1079 152.393 55.9719C153.27 56.836 154.693 56.836 155.569 55.9719L163.572 48.092C164.663 47.016 166.116 46.4238 167.661 46.4238C169.206 46.4238 170.659 47.016 171.751 48.092L212.584 88.3039C214.84 90.525 214.84 94.1378 212.584 96.3589L192.75 115.892H135.988L152.314 99.8139C153.192 98.951 153.192 97.5501 152.314 96.6861C151.437 95.8221 150.014 95.8221 149.138 96.6861L129.636 115.893H122.592C116.925 115.893 112.316 120.432 112.316 126.011V182.88C112.316 188.46 116.925 193 122.592 193H220.724C226.391 193 231 188.46 231 182.88V174.706C231 173.483 229.995 172.494 228.754 172.494C227.514 172.494 226.508 173.483 226.508 174.706V182.88C226.508 186.021 223.914 188.576 220.724 188.576H122.592C119.403 188.576 116.808 186.021 116.808 182.88V151.843H226.508V165.858C226.508 167.079 227.513 168.07 228.754 168.07C229.995 168.07 231 167.079 231 165.858V126.012C231 120.432 226.391 115.893 220.724 115.893ZM122.592 120.317H220.724C223.913 120.317 226.508 122.872 226.508 126.012V133.759H116.808V126.012C116.808 122.872 119.403 120.317 122.592 120.317ZM116.808 147.42V138.183H226.508V147.42H116.808Z" fill="black"/>
<path d="M201.886 168.07C199.988 168.07 198.442 169.592 198.442 171.461V179.887C198.442 181.758 199.988 183.279 201.886 183.279H215.496C217.395 183.279 218.94 181.758 218.94 179.887V171.461C218.94 169.592 217.395 168.07 215.496 168.07H201.886ZM214.448 178.855H202.934V172.494H214.448V178.855Z" fill="black"/>
<path d="M160.852 168.07C158.953 168.07 157.408 169.592 157.408 171.461V179.887C157.408 181.758 158.953 183.279 160.852 183.279H189.638C191.537 183.279 193.082 181.758 193.082 179.887V171.461C193.082 169.592 191.537 168.07 189.638 168.07H160.852ZM188.59 178.855H161.9V172.494H188.59V178.855Z" fill="black"/>
<path d="M133.578 178.855C132.338 178.855 131.332 179.846 131.332 181.067C131.332 182.29 132.338 183.279 133.578 183.279H147.92C149.16 183.279 150.166 182.29 150.166 181.067C150.166 179.846 149.16 178.855 147.92 178.855H133.578Z" fill="black"/>
</g>
<defs>
<clipPath id="clip0">
<rect width="143" height="151" fill="white" transform="translate(88 42)"/>
</clipPath>
</defs>
</svg>
