<svg width="41" height="40" viewBox="0 0 41 40" fill="none" xmlns="http://www.w3.org/2000/svg">
<circle cx="20.3549" cy="20" r="20" fill="black"/>
<path d="M31.3253 12.6314C30.7875 12.7797 30.3615 12.7563 30.3615 12.7563L30.3797 12.6548C30.8811 12.2543 32.1462 11.0214 32.3125 10.444C32.3853 10.1943 32.2995 10.1085 32.2995 10.1007L30.6836 10.7873L29.3327 11.3986C28.4 10.4102 26.9868 9.78076 25.4098 9.78076C22.6015 9.78076 20.3231 11.7731 20.3231 14.231C20.3231 14.681 20.3906 15.5003 20.5309 15.9112C20.5309 16.0413 20.5361 15.7812 20.5309 15.9112C18.7227 15.8618 16.4028 15.1179 14.3374 14.0697C10.2639 12.0046 10.0093 10.5741 10.0093 10.5741C9.3702 11.2529 9.04027 13.5053 9.68715 15.2714C10.1028 16.4028 11.5291 17.4172 11.5291 17.4172C11.5291 17.4172 10.89 17.4276 10.2223 17.2039C9.55466 16.9776 9.30006 16.7539 9.30006 16.7539C8.90257 17.7241 9.70014 19.4563 11.0796 20.6996C11.8824 21.4253 13.3502 21.8804 13.3502 21.8804L11.0589 21.9455C10.929 24.1719 15.7299 25.4984 15.7299 25.4984C14.3219 26.583 12.6904 27.241 10.9393 27.241C10.0327 27.241 9.15458 27.1058 8.32324 26.8561C10.6354 28.7626 13.6074 30.0813 16.8393 29.9122C25.4124 29.4596 30.2524 22.0833 30.4836 14.837L30.494 14.8526C30.494 14.8526 30.8966 14.6524 31.754 13.7914C32.6113 12.9305 33.1464 11.9266 33.1464 11.9266C33.1464 11.9266 31.8631 12.4832 31.3253 12.6314Z" fill="white"/>
<path d="M32.2995 10.1003C32.3049 10.2402 32.2995 10.1138 32.2995 10.1003V10.1003Z" fill="white"/>
</svg>
