<svg width="41" height="40" viewBox="0 0 41 40" fill="none" xmlns="http://www.w3.org/2000/svg">
<circle cx="20.3549" cy="20" r="20" fill="black"/>
<path d="M31.6911 14.3867C31.4232 13.3838 30.6347 12.5935 29.6319 12.3276C27.8176 11.8413 20.5223 11.8413 20.5223 11.8413C20.5223 11.8413 13.227 11.8413 11.4128 12.3276C10.41 12.5935 9.6215 13.3838 9.35357 14.3867C8.86365 16.2027 8.86365 19.9943 8.86365 19.9943C8.86365 19.9943 8.86365 23.7858 9.35357 25.6018C9.6215 26.6048 10.41 27.395 11.4128 27.661C13.2347 28.1473 20.5223 28.1473 20.5223 28.1473C20.5223 28.1473 27.8176 28.1473 29.6319 27.661C30.6347 27.395 31.4232 26.6048 31.6911 25.6018C32.181 23.7858 32.181 19.9943 32.181 19.9943C32.181 19.9943 32.181 16.2027 31.6911 14.3867Z" fill="white"/>
<path d="M17.9865 23.6825V16.0205L25.0041 19.8515L17.9865 23.6825Z" fill="black"/>
</svg>
